<svg width="64" height="55" viewBox="0 0 64 55" fill="none" xmlns="http://www.w3.org/2000/svg">
<path d="M31.4918 50.6044L3.46216 2H59.5621L31.4918 50.6044Z" fill="#151A36"/>
<path d="M13.647 7.74442L13.8179 7.32938C15.1363 7.32938 16.4546 7.34566 17.773 7.37821H18.5786C18.8228 7.37821 19.0913 7.37007 19.3843 7.3538C20.4422 7.30497 22.3547 7.28056 25.1216 7.28056C25.675 7.28056 26.2121 7.28869 26.7329 7.30497C27.2538 7.30497 27.7583 7.31311 28.2466 7.32938C28.3443 7.37821 28.4175 7.45146 28.4663 7.54911L28.4175 7.93974C28.3198 8.1025 28.0757 8.18388 27.6851 8.18388H27.4898C27.034 8.1676 26.2853 8.20829 25.2437 8.30595C24.202 8.38733 23.5184 8.55009 23.1929 8.79423C22.9813 8.97327 22.8755 9.20927 22.8755 9.50224C22.8755 10.137 23.1441 11.0892 23.6812 12.3587L27.3921 20.9768L28.6861 23.8333C29.9393 26.8606 31.1763 29.9531 32.397 33.1106C32.5272 33.4524 32.6493 33.7617 32.7632 34.0384L34.3989 30.0345C35.2453 28.0162 36.0998 25.8678 36.9624 23.5891L38.647 18.9993C38.6795 18.9016 38.7691 18.5761 38.9156 18.0227C40.4943 13.7096 41.2837 10.9834 41.2837 9.84403C41.2837 9.59989 41.1698 9.35575 40.9419 9.11161C40.7303 8.85119 40.3804 8.63961 39.8921 8.47685C39.6968 8.41174 39.062 8.31409 37.9878 8.18388L36.1812 7.96415C36.0347 7.80139 35.9614 7.66304 35.9614 7.54911L36.0347 7.3538L43.9448 7.28056H46.5572C47.4361 7.28056 48.0383 7.33752 48.3638 7.45146L48.3882 7.64677C48.3882 7.77698 48.3394 7.94787 48.2417 8.15946C47.8511 8.28967 47.493 8.37105 47.1675 8.4036C45.8003 8.56636 44.954 8.76168 44.6284 8.98954C44.3029 9.20113 43.9611 9.665 43.6031 10.3811L37.1822 26.2503C35.1802 31.0192 33.756 34.7138 32.9097 37.3343L32.2017 39.4583C31.9901 39.5885 31.8111 39.6536 31.6646 39.6536C31.4855 39.6536 31.2902 39.6373 31.0786 39.6048C29.1418 34.5918 27.563 30.7181 26.3423 27.9837L18.8716 11.0403C18.3345 10.0312 17.9276 9.42899 17.6509 9.23368C17.3905 9.02209 16.4546 8.72912 14.8433 8.35478C14.2736 8.22457 13.9562 8.14319 13.8911 8.11063C13.7772 8.02925 13.6958 7.90718 13.647 7.74442Z" fill="#00FFFF"/>
<path fill-rule="evenodd" clip-rule="evenodd" d="M31.4905 54.6057L0 0H63.0267L31.4905 54.6057ZM3.46212 2H59.5621L31.4918 50.6044L3.46212 2Z" fill="#00FFFF"/>
</svg>
