<svg width="65" height="65" viewBox="0 0 65 65" fill="none" xmlns="http://www.w3.org/2000/svg">
<path d="M58.7274 17.2015L32.3901 62.8052L6.09086 17.2015L58.7274 17.2015Z" fill="#151A36" stroke="#00FFFF" stroke-width="2"/>
<path d="M14.5444 21.9459L14.7153 21.5309C16.0337 21.5309 17.3521 21.5471 18.6704 21.5797H19.4761C19.7202 21.5797 19.9888 21.5715 20.2817 21.5553C21.3397 21.5064 23.2521 21.482 26.019 21.482C26.5724 21.482 27.1095 21.4902 27.6304 21.5064C28.1512 21.5064 28.6558 21.5146 29.144 21.5309C29.2417 21.5797 29.3149 21.6529 29.3638 21.7506L29.3149 22.1412C29.2173 22.304 28.9731 22.3853 28.5825 22.3853H28.3872C27.9315 22.3691 27.1828 22.4098 26.1411 22.5074C25.0994 22.5888 24.4159 22.7516 24.0903 22.9957C23.8787 23.1747 23.7729 23.4107 23.7729 23.7037C23.7729 24.3385 24.0415 25.2906 24.5786 26.5602L28.2896 35.1783L29.5835 38.0348C30.8368 41.0621 32.0737 44.1546 33.2944 47.3121C33.4246 47.6539 33.5467 47.9631 33.6606 48.2398L35.2964 44.2359C36.1427 42.2177 36.9972 40.0693 37.8599 37.7906L39.5444 33.2008C39.577 33.1031 39.6665 32.7776 39.813 32.2242C41.3918 27.9111 42.1812 25.1848 42.1812 24.0455C42.1812 23.8014 42.0672 23.5572 41.8394 23.3131C41.6278 23.0527 41.2778 22.8411 40.7896 22.6783C40.5942 22.6132 39.9595 22.5156 38.8853 22.3853L37.0786 22.1656C36.9321 22.0029 36.8589 21.8645 36.8589 21.7506L36.9321 21.5553L44.8423 21.482H47.4546C48.3335 21.482 48.9357 21.539 49.2612 21.6529L49.2856 21.8482C49.2856 21.9784 49.2368 22.1493 49.1392 22.3609C48.7485 22.4911 48.3905 22.5725 48.0649 22.6051C46.6978 22.7678 45.8514 22.9631 45.5259 23.191C45.2004 23.4026 44.8586 23.8665 44.5005 24.5826L38.0796 40.4518C36.0776 45.2206 34.6535 48.9153 33.8071 51.5357L33.0991 53.6598C32.8875 53.79 32.7085 53.8551 32.562 53.8551C32.383 53.8551 32.1877 53.8388 31.9761 53.8062C30.0392 48.7932 28.4604 44.9195 27.2397 42.1852L19.769 25.2418C19.2319 24.2327 18.825 23.6305 18.5483 23.4352C18.2879 23.2236 17.3521 22.9306 15.7407 22.5562C15.1711 22.426 14.8537 22.3447 14.7886 22.3121C14.6746 22.2307 14.5933 22.1087 14.5444 21.9459Z" fill="#00FFFF"/>
</svg>
